<?xml version="1.0" encoding="UTF-8" standalone="no"?><!DOCTYPE svg PUBLIC "-//W3C//DTD SVG 1.1//EN" "http://www.w3.org/Graphics/SVG/1.1/DTD/svg11.dtd"><svg width="100%" height="100%" viewBox="0 0 288 216" version="1.1" xmlns="http://www.w3.org/2000/svg" xmlns:xlink="http://www.w3.org/1999/xlink" xml:space="preserve" xmlns:serif="http://www.serif.com/" style="fill-rule:evenodd;clip-rule:evenodd;stroke-linejoin:round;stroke-miterlimit:1.41421;"><g id="Ebene-1" serif:id="Ebene 1"><path d="M77.697,102.373c0,5.103 -3.401,8.39 -7.426,8.39c-4.024,0 -7.369,-3.344 -7.369,-8.39l0,-0.113c0,-5.044 3.345,-8.389 7.369,-8.389c4.025,0 7.426,3.345 7.426,8.389l0,0.113Zm-5.215,-15.814c-4.477,0 -7.369,2.097 -9.466,4.931l0,-0.397c0,-2.38 -1.927,-4.307 -4.308,-4.307c-2.381,0 -4.308,1.927 -4.308,4.307l0,31.517c0,2.38 1.927,4.308 4.308,4.308c2.381,0 4.308,-1.928 4.308,-4.308l0,-9.069c2.041,2.437 4.875,4.535 9.466,4.535c7.199,0 13.831,-5.556 13.831,-15.703l0,-0.113c0,-10.146 -6.745,-15.701 -13.831,-15.701" style="fill-rule:nonzero;"/><path d="M113.218,86.785c-2.21,0 -3.457,1.474 -4.137,3.289l-6.349,17.628l-6.575,-17.685c-0.737,-2.04 -1.984,-3.232 -4.138,-3.232c-2.381,0 -4.251,1.701 -4.251,4.139c0,0.567 0.227,1.417 0.453,1.983l10.373,24.035l-0.283,0.68c-0.794,1.53 -1.53,1.815 -3.061,1.815c-0.624,0 -1.077,-0.114 -1.813,-0.341c-0.341,-0.113 -0.738,-0.227 -1.418,-0.227c-1.757,0 -3.401,1.417 -3.401,3.515c0,2.096 1.474,3.117 2.721,3.57c1.417,0.511 2.778,0.794 4.705,0.794c5.157,0 7.709,-2.324 10.26,-8.502l10.599,-25.451c0.171,-0.397 0.396,-1.361 0.396,-2.041c0,-2.268 -1.869,-3.969 -4.081,-3.969" style="fill-rule:nonzero;"/><path d="M156.734,86.559c-4.138,0 -7.312,1.7 -9.976,4.818c-1.588,-3.061 -4.592,-4.818 -8.56,-4.818c-4.365,0 -6.972,2.324 -8.956,4.875l0,-0.341c0,-2.38 -1.928,-4.308 -4.308,-4.308c-2.38,0 -4.308,1.928 -4.308,4.308l0,22.449c0,2.38 1.928,4.307 4.308,4.307c2.38,0 4.308,-1.927 4.308,-4.307l0,-12.982c0,-4.081 1.984,-6.178 5.215,-6.178c3.23,0 5.045,2.097 5.045,6.178l0,12.982c0,2.38 1.927,4.307 4.308,4.307c2.38,0 4.307,-1.927 4.307,-4.307l0,-12.982c0,-4.081 1.985,-6.178 5.216,-6.178c3.23,0 5.044,2.097 5.044,6.178l0,12.982c0,2.38 1.928,4.307 4.308,4.307c2.382,0 4.309,-1.927 4.309,-4.307l0,-15.816c0,-7.313 -3.854,-11.167 -10.26,-11.167" style="fill-rule:nonzero;"/><path d="M222.47,110.532c-3.134,0 -8.878,-4.703 -12.5,-8.329c3.622,-3.625 9.366,-8.328 12.5,-8.328c4.593,0 8.329,3.737 8.329,8.328c0,4.593 -3.736,8.329 -8.329,8.329m-34.733,0c-4.592,0 -8.328,-3.736 -8.328,-8.329c0,-4.591 3.736,-8.328 8.328,-8.328c3.135,0 8.879,4.703 12.5,8.328c-3.621,3.626 -9.365,8.329 -12.5,8.329m34.733,-23.941c-5.375,0 -12.195,5.469 -17.366,10.545c-5.173,-5.075 -11.993,-10.545 -17.367,-10.545c-8.609,0 -15.612,7.004 -15.612,15.612c0,8.609 7.003,15.614 15.612,15.614c5.374,0 12.194,-5.47 17.367,-10.545c5.171,5.076 11.991,10.545 17.366,10.545c8.61,0 15.613,-7.005 15.613,-15.614c0,-8.608 -7.003,-15.612 -15.613,-15.612" style="fill-rule:nonzero;"/></g></svg>